<svg width="30" height="30" viewBox="0 0 30 30" fill="none" xmlns="http://www.w3.org/2000/svg">
<g clip-path="url(#clip0_3497_9577)">
<path d="M16.5082 14.5248L19.3854 16.6098L22.9008 17.8677L22.393 13.1954L20.8418 8.87001L18.11 11.3069L16.5082 14.5248Z" fill="#00832D"/>
<path d="M4.2228 21.6965L5.11011 25.5739C5.3127 26.4592 6.19584 27.0136 7.08133 26.8109L10.9587 25.9236L11.0912 22.8102L9.70431 20.4421L6.86042 20.248L4.2228 21.6965Z" fill="#0066DA"/>
<path d="M6.55377 6.67434L2.32667 13.4102L5.3315 13.5655L7.80818 12.1558L8.02042 9.45832L6.55377 6.67434Z" fill="#E94235"/>
<path d="M4.22283 21.6982L9.70425 20.4438L7.80759 12.1558L2.32617 13.4102L4.22283 21.6982Z" fill="#2684FC"/>
<path d="M23.6864 5.19609L20.8421 8.87013L22.9011 17.8677L27.0772 19.9469C27.6979 20.2388 28.3819 19.6868 28.2288 19.0177L25.139 5.51588C24.9842 4.83937 24.1102 4.64584 23.6863 5.1962" fill="#00AC47"/>
<path d="M16.5086 14.5248L17.4567 18.6679L9.70398 20.4421L10.9584 25.9236L22.4547 23.2928C23.3402 23.0901 23.8943 22.2069 23.6917 21.3215L22.9013 17.8676L16.5086 14.5248Z" fill="#00AC47"/>
<path d="M18.0491 4.04353L6.55273 6.67438L7.80714 12.1559L15.5599 10.3817L16.508 14.5248L20.8417 8.8699L20.0203 5.28066C19.8177 4.39516 18.9346 3.84098 18.0491 4.04362" fill="#FFBA00"/>
</g>
<defs>
<clipPath id="clip0_3497_9577">
<rect width="24" height="24" fill="white" transform="translate(0.625 5.97931) rotate(-12.8898)"/>
</clipPath>
</defs>
</svg>
