<svg width="30" height="30" viewBox="0 0 30 30" fill="none" xmlns="http://www.w3.org/2000/svg">
<g clip-path="url(#clip0_3497_9569)">
<path fill-rule="evenodd" clip-rule="evenodd" d="M11.4026 2.46777C10.3852 2.16729 9.29005 2.28327 8.35815 2.79022C7.42625 3.29716 6.7339 4.15354 6.43341 5.17096L2.46792 18.5976C2.16743 19.615 2.28342 20.7101 2.79037 21.6421C3.29731 22.574 4.15369 23.2663 5.17111 23.5668L18.5978 27.5323C19.6152 27.8328 20.7103 27.7168 21.6422 27.2098C22.5741 26.7029 23.2665 25.8465 23.5669 24.8291L27.5324 11.4024C27.8329 10.385 27.7169 9.28991 27.21 8.358C26.703 7.4261 25.8467 6.73375 24.8292 6.43326L11.4026 2.46777ZM8.72477 9.76931C8.88481 9.22745 9.4535 8.91889 9.99536 9.07893L17.1882 11.2033C17.7951 11.3825 18.3059 11.7955 18.6083 12.3514C18.9107 12.9073 18.9799 13.5605 18.8007 14.1674L17.3521 19.072C17.1924 19.6129 16.6234 19.9224 16.0815 19.7624L8.88869 17.638C8.2818 17.4587 7.77097 17.0458 7.46857 16.4899C7.16618 15.934 7.09699 15.2808 7.27624 14.6739L8.72477 9.76931ZM22.5384 13.0671C22.6275 13.0338 22.724 13.0261 22.8173 13.0447C22.9105 13.0633 22.9967 13.1076 23.0661 13.1725C23.1356 13.2375 23.1855 13.3205 23.2104 13.4122C23.2352 13.504 23.234 13.6009 23.2068 13.692L21.1793 20.5568C21.1526 20.6481 21.101 20.7301 21.0303 20.7936C20.9596 20.8572 20.8726 20.8997 20.779 20.9165C20.6854 20.9333 20.589 20.9236 20.5006 20.8886C20.4122 20.8536 20.3353 20.7946 20.2786 20.7183L18.65 18.5294C18.5548 18.4022 18.4906 18.2545 18.4626 18.0982C18.4345 17.9418 18.4434 17.7811 18.4885 17.6287L19.3575 14.6864C19.4487 14.3776 19.6803 14.13 19.9824 14.018L22.5384 13.0671Z" fill="#0B5CFF"/>
</g>
<defs>
<clipPath id="clip0_3497_9569">
<rect width="24" height="24" fill="white" transform="translate(6.89062 0.0924683) rotate(16.4542)"/>
</clipPath>
</defs>
</svg>
